<svg width="9" height="13" viewBox="0 0 9 13" fill="none" xmlns="http://www.w3.org/2000/svg">
<path d="M4.10144 13H5.19776C6.16133 13 7.03778 12.6067 7.67333 11.9737C8.30861 11.3406 8.703 10.4672 8.703 9.50674V5.77148H0.596191V9.50674C0.596191 10.4672 0.99058 11.3406 1.62586 11.9737C2.26114 12.6067 3.13787 13 4.10144 13Z" fill="#E8E8E8"/>
<path d="M4.31136 5.24446V4.19854C4.00271 4.08555 3.77924 3.78872 3.77924 3.44256V2.27759C3.77924 1.93143 4.00188 1.63433 4.31136 1.52133V0H4.03894C3.07537 0 2.19864 0.393011 1.56336 1.02607C0.92808 1.65941 0.533691 2.5328 0.533691 3.493V5.24446H4.31136Z" fill="#E8E8E8"/>
<path d="M4.89392 5.24343V4.19772C5.20243 4.08474 5.4258 3.78798 5.4258 3.44189V2.27714C5.4258 1.93105 5.20326 1.63401 4.89392 1.52103V0H5.16622C6.12936 0 7.0057 0.392933 7.64071 1.02587C8.27571 1.65908 8.66992 2.5323 8.66992 3.49231V5.24343H4.89392Z" fill="#1F1E1E"/>
<rect x="4.13281" y="1.78058" width="0.920977" height="2.14895" rx="0.460489" fill="#D9D9D9"/>
</svg>
