<svg width="43" height="14" viewBox="0 0 43 14" fill="none" xmlns="http://www.w3.org/2000/svg">
<rect x="0.0732422" width="41.9531" height="13.6804" rx="2" fill="#E8E8E8"/>
<path d="M9.65839 8.94404C7.93039 8.94404 7.02439 8.56004 6.99439 7.40204H7.82839C7.82839 8.08004 8.36839 8.34404 9.65839 8.34404C10.7804 8.34404 11.2484 8.15804 11.2484 7.64804C11.2484 7.14404 10.9004 7.07204 9.61639 6.98804L9.37639 6.97004C7.70839 6.86804 7.12039 6.53204 7.12039 5.66804C7.12039 4.82204 7.94239 4.46204 9.43639 4.46204C11.0564 4.46204 11.8724 4.94204 11.8964 5.93204H11.0684C11.0684 5.26604 10.4744 5.06204 9.37039 5.06204C8.33839 5.06204 7.94839 5.23004 7.94839 5.66804C7.94839 6.16604 8.30839 6.27404 9.48439 6.35804L9.73639 6.37604C11.2424 6.48404 12.0764 6.60404 12.0764 7.62404C12.0764 8.63204 11.1644 8.94404 9.65839 8.94404ZM12.8442 10.288V5.27804H13.6362V6.02804C14.0022 5.48204 14.6862 5.15804 15.5382 5.15804C16.8582 5.15804 17.7102 5.90204 17.7102 7.04804C17.7102 8.19404 16.8582 8.94404 15.5382 8.94404C14.6862 8.94404 14.0022 8.62004 13.6362 8.06804V10.288H12.8442ZM13.6362 7.04804C13.6362 7.77404 14.2602 8.24204 15.2862 8.24204C16.2462 8.24204 16.8402 7.77404 16.8402 7.04804C16.8402 6.32804 16.2462 5.86004 15.2862 5.86004C14.2602 5.86004 13.6362 6.32804 13.6362 7.04804ZM22.3401 6.68804C22.3401 6.02804 21.8661 5.86004 20.9721 5.86004C20.3601 5.86004 19.7241 6.00404 18.8781 6.22604L18.7581 5.48804C19.5801 5.27204 20.3781 5.15804 21.0861 5.15804C22.5501 5.15804 23.1741 5.64404 23.1741 6.80204V8.82404H22.3401V8.39204C21.6801 8.74604 20.9001 8.95004 20.1561 8.95004C19.0641 8.95004 18.4701 8.52404 18.4701 7.75604C18.4701 6.94004 19.1841 6.50804 20.4561 6.50804C21.0321 6.50804 21.6801 6.60404 22.3401 6.77804V6.68804ZM19.3401 7.70204C19.3401 8.14004 19.6881 8.36804 20.3541 8.36804C20.9361 8.36804 21.6201 8.17604 22.3401 7.83404V7.36604C21.5361 7.16804 21.1281 7.10204 20.4801 7.10204C19.7001 7.10204 19.3401 7.26404 19.3401 7.70204ZM26.364 8.94404C24.882 8.94404 23.928 8.20004 23.928 7.05404C23.928 5.90204 24.882 5.15804 26.364 5.15804C27.6 5.15804 28.53 5.71004 28.71 6.55004H27.9C27.744 6.08804 27.138 5.78804 26.364 5.78804C25.362 5.78804 24.714 6.28604 24.714 7.05404C24.714 7.81604 25.362 8.31404 26.364 8.31404C27.138 8.31404 27.744 8.01404 27.9 7.55204H28.71C28.53 8.39804 27.6 8.94404 26.364 8.94404ZM31.8548 8.94404C30.3188 8.94404 29.3828 8.24204 29.3828 7.05404C29.3828 5.86604 30.3368 5.15804 31.8128 5.15804C33.3008 5.15804 34.2068 5.89004 34.2068 7.34204H30.2408C30.3608 7.97204 30.9368 8.30804 31.8788 8.30804C32.6528 8.30804 33.1748 8.06804 33.3308 7.66004H34.1528C33.9368 8.46404 33.1508 8.94404 31.8548 8.94404ZM30.2528 6.72404H33.3488C33.2048 6.07604 32.6768 5.78804 31.8188 5.78804C30.9548 5.78804 30.3968 6.08804 30.2528 6.72404Z" fill="black"/>
</svg>
